<svg width="185" height="68" viewBox="0 0 185 68" fill="none" xmlns="http://www.w3.org/2000/svg">
<g clip-path="url(#clip0_1_3701)">
<mask id="mask0_1_3701" style="mask-type:luminance" maskUnits="userSpaceOnUse" x="33" y="20" width="88" height="28">
<path fill-rule="evenodd" clip-rule="evenodd" d="M102.389 29.03C101.738 28.6076 101.06 28.2497 100.359 27.96C99.7377 27.6949 99.0835 27.553 98.4229 27.54C97.8045 27.4991 97.1905 27.6842 96.6641 28.07C96.4778 28.2372 96.3241 28.4497 96.2133 28.6933C96.1026 28.9368 96.0374 29.2057 96.0222 29.4816C96.0069 29.7576 96.042 30.0342 96.125 30.2927C96.2081 30.5512 96.3371 30.7856 96.5034 30.98C96.8742 31.3927 97.2999 31.7305 97.7633 31.98C98.2859 32.2875 98.8222 32.5613 99.3699 32.8C99.886 33.0271 100.389 33.2943 100.875 33.6C101.368 33.9036 101.821 34.291 102.22 34.75C102.632 35.2397 102.955 35.8254 103.167 36.47C103.424 37.2709 103.548 38.1234 103.53 38.98C103.531 40.0104 103.291 41.021 102.837 41.9C102.348 42.8351 101.648 43.5902 100.816 44.08C99.7981 44.6662 98.675 44.9511 97.5434 44.91C96.1453 44.8955 94.7633 44.5557 93.4762 43.91C92.8028 43.57 92.1598 43.1512 91.5567 42.66L93.0703 39.48C93.492 39.8435 93.9423 40.1583 94.4148 40.42C94.8828 40.6916 95.3729 40.906 95.8777 41.06C96.319 41.2007 96.7736 41.2746 97.2306 41.28C97.6539 41.2783 98.0751 41.2077 98.4821 41.07C98.8767 40.9436 99.2357 40.6951 99.5221 40.35C99.6671 40.1614 99.7784 39.9403 99.8496 39.6998C99.9208 39.4593 99.9503 39.2043 99.9365 38.95C99.9392 38.5411 99.8194 38.1444 99.5983 37.83C99.3348 37.4602 99.0202 37.1458 98.6681 36.9C98.2661 36.6091 97.8413 36.3647 97.3997 36.17C96.8585 35.93 96.3004 35.64 95.7085 35.33C95.1389 35.0098 94.6002 34.6175 94.102 34.16C93.5497 33.6715 93.1069 33.0307 92.8122 32.2934C92.5174 31.5561 92.3796 30.7447 92.4108 29.93C92.3886 28.8361 92.6227 27.7563 93.0872 26.81C93.5538 25.9192 94.2176 25.1964 95.0067 24.72C95.8917 24.1897 96.8647 23.8961 97.8564 23.86C99.0211 23.8177 100.183 24.0174 101.289 24.45C102.116 24.8185 102.907 25.2913 103.649 25.86L102.389 29.03ZM41.4389 27.91L41.7095 27.27L42.107 26.33L42.4283 25.58L42.5805 25.23L42.665 25.05H42.7073L42.7665 24.93L42.8342 24.78L42.9356 24.54L43.0033 24.39V24.33L43.054 24.23V24.17L43.1301 24.04L43.1893 23.94L43.2992 23.77L43.4007 23.62L44.1364 21.91L44.3985 21.6L44.4577 21.53L44.5084 21.48L44.5845 21.4L44.6522 21.33L44.8551 21.15H44.8974L44.9566 21.1L45.0327 21.04L45.1511 20.95L45.3033 20.84L45.4047 20.78L45.4724 20.73L45.9036 20.48L46.0643 20.4L46.1996 20.34H46.2503C46.3687 20.28 46.4871 20.24 46.6139 20.19L46.783 20.13L46.9352 20.08H47.0621H47.1974H47.3749L47.7977 20H48.0091H48.2205H48.4235H67.5252C67.5252 20.07 67.5929 20.11 67.576 20.14C67.3646 20.63 67.1785 21.14 66.9756 21.62C66.9756 21.67 66.9333 21.73 66.9079 21.78C66.8318 21.96 66.7642 22.14 66.6796 22.32C66.665 22.3663 66.6451 22.4101 66.6204 22.45L66.5782 22.54V22.61V22.66V22.71V22.79H53.2602V26.2H46.3095C44.669 26.144 43.0682 26.8023 41.811 28.05L41.5742 28.3L41.4558 28.42H41.3628C41.3882 28.08 41.4136 27.99 41.4389 27.91ZM53.2771 30.53V36.81C49.4551 36.81 45.633 36.81 41.811 36.81C40.9119 36.7566 40.0133 36.9246 39.172 37.3033C38.3307 37.682 37.565 38.2632 36.9235 39.01L36.7206 39.26H36.6191C37.4647 37.32 38.1834 35.33 39.1559 33.45C40.1283 31.57 41.8448 30.6 44.2294 30.59C47.2396 30.51 50.2499 30.5 53.2602 30.51L53.2771 30.53ZM56.1944 45.91C54.9404 47.1207 53.3451 47.7246 51.7297 47.6H33C33.4932 46.3427 34.0582 45.1265 34.6912 43.96C35.7312 42.26 37.4393 41.32 39.7647 41.32H53.294V45.91H56.1944ZM119.918 24.26H120.002C120.015 24.2557 120.027 24.2481 120.037 24.2377C120.048 24.2273 120.056 24.2145 120.061 24.2V24.14C120.061 24.14 120.061 24.09 120.061 24.07C120.065 24.0503 120.065 24.0297 120.061 24.01C120.068 23.984 120.068 23.956 120.061 23.93C120.049 23.9052 120.032 23.8846 120.011 23.87C119.977 23.8589 119.942 23.8589 119.909 23.87H119.732V24.3L119.918 24.26ZM119.918 23.55C119.985 23.5391 120.053 23.5391 120.121 23.55C120.175 23.5751 120.226 23.6088 120.273 23.65C120.309 23.6993 120.34 23.7529 120.366 23.81C120.375 23.8762 120.375 23.9438 120.366 24.01C120.37 24.0665 120.37 24.1235 120.366 24.18C120.349 24.2414 120.323 24.299 120.29 24.35L120.188 24.44L120.476 24.97H120.197L119.935 24.51H119.774V24.97H119.537V23.52L119.918 23.55ZM119.833 25.63H119.647H119.554H119.495L119.376 25.56L119.3 25.48L119.224 25.38L119.174 25.29V25.22V25.14C119.174 25.14 119.174 25.05 119.174 25V24.93C119.174 24.93 119.174 24.84 119.174 24.79V24.69V24.59L119.25 24.41C119.29 24.3518 119.336 24.2982 119.385 24.25L119.444 24.19L119.52 24.13H119.562H119.393H119.461H119.622H119.689H120.239H120.298H120.349H120.417H120.467L120.543 24.19L120.603 24.25C120.652 24.2982 120.697 24.3518 120.738 24.41L120.814 24.59V24.69V24.8C120.814 24.85 120.814 24.89 120.814 24.94V25.07C120.814 25.07 120.814 25.16 120.814 25.2C120.814 25.2 120.814 25.28 120.814 25.31V25.38L120.763 25.47L120.687 25.57L120.611 25.65L120.493 25.72H120.433H120.34H119.951L119.833 25.63ZM119.935 23.27C119.767 23.27 119.604 23.3287 119.465 23.4385C119.326 23.5484 119.217 23.7046 119.153 23.8873C119.089 24.0701 119.073 24.2711 119.105 24.4651C119.138 24.6591 119.218 24.8373 119.337 24.9771C119.455 25.117 119.606 25.2122 119.77 25.2508C119.934 25.2894 120.104 25.2696 120.258 25.1939C120.413 25.1182 120.545 24.99 120.638 24.8256C120.731 24.6611 120.78 24.4678 120.78 24.27C120.783 24.1327 120.761 23.9963 120.717 23.8692C120.673 23.7421 120.607 23.6272 120.524 23.5315C120.441 23.4358 120.342 23.3614 120.233 23.313C120.124 23.2645 120.008 23.2431 119.892 23.25L119.935 23.27ZM70.5778 23.27L73.8756 28.8V44.8H70.5524V23.27H70.5778ZM88.5465 23.27V44.78H85.0626V34.91L79.3719 44.49H79.3211L74.755 37.02V30.34L79.3972 38.13L88.4619 23.26L88.5465 23.27ZM121 44.72H117.009L112.832 32.2L108.401 44.72H105.018L112.899 23.22H113.094L121 44.72ZM54.7569 24.03H66.6796V27.96H58.2238V32.37H65.7326V36.3H58.2238V40.77H66.9671V44.7H54.7146L54.7569 24.03Z" fill="white"/>
</mask>
<g mask="url(#mask0_1_3701)">
<path d="M121.042 19.73H33V47.59H121.042V19.73Z" fill="url(#paint0_linear_1_3701)"/>
</g>
</g>
<defs>
<linearGradient id="paint0_linear_1_3701" x1="76.7674" y1="52.62" x2="77.4888" y2="14.2838" gradientUnits="userSpaceOnUse">
<stop stop-color="#004C7A"/>
<stop offset="0.23" stop-color="#006698"/>
<stop offset="0.56" stop-color="#0085BC"/>
<stop offset="0.83" stop-color="#0098D3"/>
<stop offset="1" stop-color="#009FDB"/>
</linearGradient>
<clipPath id="clip0_1_3701">
<rect width="104.12" height="27.86" fill="white" transform="translate(17 20)"/>
</clipPath>
</defs>
</svg>
